# xmcd CD database file
#
# Track frame offsets:
#	150
#	24152
#	38376
#	60340
#	77125
#
# Disc length: 1408 seconds
#
# Revision: 0
# Processed by: cddbd v1.5.1PL2 Copyright (c) Steve Scherf et al.
# Submitted via: CDex 1.51
#
DISCID=27057e05
DTITLE=diffriends - born to be
DYEAR=2006
DGENRE=Rhythmic Soul
TTITLE0=thursday train
TTITLE1=give up
TTITLE2=do it
TTITLE3=that thing
TTITLE4=born
EXTD=YEAR: 2006
EXTT0=
EXTT1=
EXTT2=
EXTT3=
EXTT4=
PLAYORDER=
